<svg width="10" height="10" viewBox="0 0 10 10" fill="none" xmlns="http://www.w3.org/2000/svg"><path d="M2.5 0H0.555556C0.25 0 0 0.25 0 0.555556C0 5.77222 4.22778 10 9.44444 10C9.75 10 10 9.75 10 9.44444V7.50556C10 7.2 9.75 6.95 9.44444 6.95C8.75556 6.95 8.08333 6.83889 7.46111 6.63333C7.40556 6.61111 7.34444 6.60556 7.28889 6.60556C7.14444 6.60556 7.00556 6.66111 6.89444 6.76667L6.18718 7.47393C5.88026 7.78085 5.407 7.85972 5.03916 7.62928C3.95917 6.9527 3.04285 6.03886 2.36844 4.95966C2.13896 4.59244 2.21836 4.12053 2.52456 3.81433L3.23333 3.10556C3.38889 2.95 3.43333 2.73333 3.37222 2.53889C3.16667 1.91667 3.05556 1.25 3.05556 0.555556C3.05556 0.25 2.80556 0 2.5 0Z" fill="black"/></svg>
