<svg width="10" height="10" viewBox="0 0 10 10" fill="none" xmlns="http://www.w3.org/2000/svg"><path d="M8.94355 0.353553C8.74829 0.158291 8.43171 0.158291 8.23645 0.353553L5.35355 3.23645C5.15829 3.43171 4.84171 3.43171 4.64645 3.23645L1.76355 0.353553C1.56829 0.158291 1.25171 0.158291 1.05645 0.353553L0.353553 1.05645C0.158291 1.25171 0.158291 1.56829 0.353553 1.76355L3.23645 4.64645C3.43171 4.84171 3.43171 5.15829 3.23645 5.35355L0.353553 8.23645C0.158291 8.43171 0.158291 8.74829 0.353553 8.94355L1.05645 9.64645C1.25171 9.84171 1.56829 9.84171 1.76355 9.64645L4.64645 6.76355C4.84171 6.56829 5.15829 6.56829 5.35355 6.76355L8.23645 9.64645C8.43171 9.84171 8.74829 9.84171 8.94355 9.64645L9.64645 8.94355C9.84171 8.74829 9.84171 8.43171 9.64645 8.23645L6.76355 5.35355C6.56829 5.15829 6.56829 4.84171 6.76355 4.64645L9.64645 1.76355C9.84171 1.56829 9.84171 1.25171 9.64645 1.05645L8.94355 0.353553Z" fill="black"/></svg>
