<svg width="7" height="10" viewBox="0 0 7 10" fill="none" xmlns="http://www.w3.org/2000/svg"><path d="M3.036 9.9C3.57282 9.9 4.008 9.46482 4.008 8.928V8.796C4.008 8.25918 3.57282 7.824 3.036 7.824V7.824C2.49918 7.824 2.064 8.25918 2.064 8.796V8.928C2.064 9.46482 2.49918 9.9 3.036 9.9V9.9ZM3.168 0C1.19379 0 0.307546 1.11308 0.0689636 2.53549C-0.0110695 3.01265 0.203228 3.40728 0.687 3.414V3.414C1.17077 3.42072 1.71564 3.01207 1.88188 2.55771C2.10631 1.94434 2.60107 1.728 3.204 1.728C3.936 1.728 4.428 2.16 4.428 2.712C4.428 4.04472 2.65659 4.21229 2.2615 6.21936C2.17062 6.68105 2.92545 7.068 3.396 7.068V7.068C3.86655 7.068 3.87013 6.67596 4.01495 6.22825C4.51057 4.696 6.288 4.25879 6.288 2.844C6.288 0.876 5.256 0 3.168 0Z" fill="black"/></svg>
