<svg width="87" height="58" viewBox="0 0 87 58" fill="none" xmlns="http://www.w3.org/2000/svg"><rect x="30.5" y="31.5" width="25.779" height="25.779" rx="2.5" fill="#334155" stroke="#334155"/><path d="M43.0366 46.064C43.356 46.064 43.6152 46.0288 43.8145 45.9585C44.1924 45.8237 44.3813 45.5732 44.3813 45.207C44.3813 44.9932 44.2876 44.8276 44.1001 44.7104C43.9126 44.5962 43.6182 44.4951 43.2168 44.4072L42.5312 44.2534C41.8574 44.1011 41.3916 43.9355 41.1338 43.7568C40.6973 43.458 40.479 42.9907 40.479 42.355C40.479 41.7749 40.6899 41.293 41.1118 40.9092C41.5337 40.5254 42.1533 40.3335 42.9707 40.3335C43.6533 40.3335 44.2349 40.5151 44.7153 40.8784C45.1987 41.2388 45.4521 41.7632 45.4756 42.4517H44.1748C44.1514 42.062 43.9814 41.7852 43.665 41.6211C43.4541 41.5127 43.1919 41.4585 42.8784 41.4585C42.5298 41.4585 42.2515 41.5288 42.0435 41.6694C41.8354 41.8101 41.7314 42.0063 41.7314 42.2583C41.7314 42.4897 41.834 42.6626 42.0391 42.7769C42.1709 42.853 42.4521 42.9424 42.8828 43.0449L43.999 43.313C44.4883 43.4302 44.8574 43.5869 45.1064 43.7832C45.4932 44.0879 45.6865 44.5288 45.6865 45.106C45.6865 45.6978 45.4595 46.1899 45.0054 46.5825C44.5542 46.9722 43.9155 47.167 43.0894 47.167C42.2456 47.167 41.582 46.9751 41.0986 46.5913C40.6152 46.2046 40.3735 45.6743 40.3735 45.0005H41.6655C41.7065 45.2964 41.7871 45.5176 41.9072 45.6641C42.127 45.9307 42.5034 46.064 43.0366 46.064Z" fill="#D9D9D9"/><rect x="0.5" y="31.5" width="26" height="26" rx="2.5" fill="#334155" stroke="#363636"/><path d="M14.478 46.6685H12.0918L11.6436 48H10.2285L12.54 41.5225H14.0693L16.3633 48H14.8955L14.478 46.6685ZM14.1001 45.5522L13.2915 43.0034L12.4565 45.5522H14.1001Z" fill="#D9D9D9"/><rect x="60.5" y="31.5" width="26" height="26" rx="2.5" fill="#334155" stroke="#334155"/><path d="M73.4761 48H70.6855V41.5225H73.4761C73.8774 41.5283 74.2114 41.5752 74.478 41.6631C74.9321 41.8125 75.2998 42.0864 75.5811 42.4849C75.8066 42.8071 75.9604 43.1558 76.0425 43.5308C76.1245 43.9058 76.1655 44.2632 76.1655 44.603C76.1655 45.4644 75.9927 46.1938 75.647 46.7915C75.1782 47.5972 74.4546 48 73.4761 48ZM74.4824 43.1748C74.2744 42.8232 73.8628 42.6475 73.2476 42.6475H71.9995V46.875H73.2476C73.8862 46.875 74.3315 46.5601 74.5835 45.9302C74.7212 45.5845 74.79 45.1729 74.79 44.6953C74.79 44.0361 74.6875 43.5293 74.4824 43.1748Z" fill="#D9D9D9"/><rect x="23.5" y="0.5" width="26" height="26" rx="2.5" fill="#334155" stroke="#363636"/><path d="M39.9873 10.5225H41.3628L39.5391 17H38.2471L37.4648 13.2119L37.2363 11.9595L37.0078 13.2119L36.2256 17H34.9688L33.1318 10.5225H34.5688L35.4258 14.2314L35.6104 15.2642L35.7993 14.2534L36.5288 10.5225H37.957L38.7261 14.2314L38.9238 15.2642L39.1216 14.271L39.9873 10.5225Z" fill="#D9D9D9"/></svg>
