<svg width="42" height="54" viewBox="0 0 42 54" fill="none" xmlns="http://www.w3.org/2000/svg"><path d="M20.6762 15.8446V12.5863C20.2021 12.3829 19.7973 12.0408 19.5126 11.6031C19.228 11.1653 19.0762 10.6513 19.0763 10.1257V6.78923C19.0759 6.26353 19.2276 5.74947 19.5123 5.31166C19.797 4.87386 20.2019 4.53187 20.6762 4.32868V0C10.2821 0.143563 -0.00710704 4.90657 3.68346e-06 14.1146V18.3924C6.74927 16.7034 13.6726 15.8492 20.6211 15.8482L20.6762 15.8446Z" fill="#334155"/><path d="M22.709 0.0253906V4.3341C23.016 4.46808 23.2953 4.66048 23.5321 4.90108C23.7749 5.14876 23.9675 5.44309 24.0987 5.76712C24.2298 6.09116 24.2971 6.43851 24.2965 6.7892V10.1257C24.2964 10.6487 24.1459 11.1602 23.8637 11.5964C23.5814 12.0326 23.1798 12.3743 22.709 12.579V15.8718C29.2044 16.0499 35.6659 16.8931 41.9968 18.3887V14.1073C41.9879 5.1137 32.6036 0.463349 22.709 0.0253906Z" fill="#334155"/><path d="M20.625 17.9243C13.6728 17.9235 6.74694 18.7981 0.00390625 20.5284V32.257C0.00390625 37.95 2.21619 43.4098 6.15407 47.4353C10.092 51.4608 15.4329 53.7224 21.0019 53.7224C26.5709 53.7224 31.9118 51.4608 35.8497 47.4353C39.7876 43.4098 41.9998 37.95 41.9998 32.257V20.5212C35.1393 18.8624 28.119 17.992 21.0694 17.9261L20.625 17.9243Z" fill="#363636"/></svg>
