<svg width="9" height="11" viewBox="0 0 9 11" fill="none" xmlns="http://www.w3.org/2000/svg"><path fill-rule="evenodd" clip-rule="evenodd" d="M4.05263 6.94737C5.01368 6.94737 5.78947 6.17158 5.78947 5.21053V1.73684C5.78947 0.775789 5.01368 0 4.05263 0C3.09158 0 2.31579 0.775789 2.31579 1.73684V5.21053C2.31579 6.17158 3.09158 6.94737 4.05263 6.94737ZM3.47368 1.73684C3.47368 1.41842 3.73421 1.15789 4.05263 1.15789C4.37105 1.15789 4.63158 1.41842 4.63158 1.73684V5.21053C4.63158 5.52895 4.37105 5.78947 4.05263 5.78947C3.73421 5.78947 3.47368 5.52895 3.47368 5.21053V1.73684ZM4.05263 8.10526C5.45358 8.10526 6.62312 7.10839 6.89013 5.78577C6.95341 5.47235 7.20657 5.21053 7.52632 5.21053V5.21053C7.84606 5.21053 8.10963 5.47111 8.06449 5.78765C7.85078 7.28609 6.81684 8.51474 5.43303 9.01609C4.98644 9.17789 4.63158 9.56932 4.63158 10.0443V10.4211C4.63158 10.7408 4.37238 11 4.05263 11V11C3.73289 11 3.47368 10.7408 3.47368 10.4211V10.0443C3.47368 9.56932 3.11882 9.17789 2.67223 9.01609C1.28842 8.51474 0.254481 7.28609 0.0407743 5.78765C-0.00437047 5.47111 0.259204 5.21053 0.578947 5.21053V5.21053C0.898691 5.21053 1.15186 5.47235 1.21513 5.78577C1.48214 7.10839 2.65168 8.10526 4.05263 8.10526Z" fill="black"/></svg>
