<svg width="11" height="11" viewBox="0 0 11 11" fill="none" xmlns="http://www.w3.org/2000/svg"><path fill-rule="evenodd" clip-rule="evenodd" d="M4.2767 1.67895C4.2767 1.29684 4.58933 0.984211 4.97144 0.984211C5.35354 0.984211 5.66617 1.29684 5.66617 1.67895L5.66095 3.72323C5.66059 3.86359 5.71659 3.99822 5.81638 4.09691V4.09691C6.14711 4.42398 6.70828 4.18971 6.70828 3.72457V1.73684C6.70828 0.77579 5.93249 0 4.97144 0C4.16297 0 3.49255 0.552209 3.3012 1.29834C3.26353 1.44523 3.32023 1.59669 3.42746 1.70392L3.65854 1.935C3.88665 2.16312 4.2767 2.00155 4.2767 1.67895V1.67895ZM8.9907 5.70114C9.02738 5.43184 8.80372 5.21052 8.53194 5.21052V5.21052C8.26016 5.21052 8.04387 5.43234 7.99861 5.70033C7.99002 5.75119 7.98016 5.80154 7.9691 5.85134C7.92654 6.04307 7.97124 6.24772 8.11011 6.38659V6.38659C8.36036 6.63684 8.7825 6.5663 8.88005 6.22611C8.929 6.05541 8.96633 5.88008 8.9907 5.70114ZM0.169065 1.72232C-0.0563549 1.4969 -0.0563549 1.13143 0.169065 0.906007V0.906007C0.394484 0.680588 0.759961 0.680588 0.985381 0.906007L9.86644 9.78707C10.0919 10.0125 10.0919 10.378 9.86644 10.6034V10.6034C9.64102 10.8288 9.27554 10.8288 9.05012 10.6034L7.54944 9.1027C7.24108 8.79434 6.77091 8.74179 6.36206 8.89346V8.89346C5.91239 9.06027 5.55038 9.45726 5.55038 9.93686V10.421C5.55038 10.7408 5.29118 11 4.97144 11V11C4.65169 11 4.39249 10.7408 4.39249 10.421V9.96272C4.39249 9.4675 4.02353 9.0587 3.56007 8.8842C2.20382 8.37353 1.14766 7.16221 0.951552 5.70133C0.915393 5.43196 1.13913 5.21048 1.41091 5.21048V5.21048C1.68269 5.21048 1.89844 5.43247 1.94329 5.70053C2.18947 7.17173 3.52852 8.16312 4.97144 8.16312C5.10709 8.16312 5.24177 8.15391 5.37465 8.1362C5.84517 8.0735 5.9525 7.50576 5.61685 7.17011V7.17011C5.44984 7.0031 5.20762 6.94733 4.97144 6.94733V6.94733C4.01038 6.94733 3.23459 6.17154 3.23459 5.21048V5.20207C3.23459 4.93685 3.12924 4.6825 2.9417 4.49496L0.169065 1.72232Z" fill="black"/></svg>
